<svg width="281" height="210" xmlns="http://www.w3.org/2000/svg" xmlns:xlink="http://www.w3.org/1999/xlink"><defs><linearGradient x1="49.6%" y1="57.8%" x2="63.8%" y2="47.9%" id="e"><stop stop-color="#F60" offset="0%"/><stop stop-color="#FC0" offset="100%"/></linearGradient><linearGradient x1="43.3%" y1="58.9%" x2="87.4%" y2="-8.1%" id="f"><stop stop-color="#005082" offset="0%"/><stop stop-color="#1E82C0" offset="60%"/><stop stop-color="#3DB5FF" offset="100%"/></linearGradient><linearGradient x1="42%" y1="93.4%" x2="60.3%" y2="19.9%" id="g"><stop stop-color="#005082" offset="0%"/><stop stop-color="#1E82C0" offset="60%"/><stop stop-color="#3DB5FF" offset="100%"/></linearGradient><linearGradient x1="20.7%" y1="75.8%" x2="83.8%" y2="14.4%" id="h"><stop stop-color="#E6E6E6" offset="0%"/><stop stop-color="#FEFEFE" offset="100%"/></linearGradient><linearGradient x1="47.7%" y1="50%" x2="75.5%" y2="46.7%" id="i"><stop stop-color="#F60" offset="0%"/><stop stop-color="#FC0" offset="100%"/></linearGradient><filter x="-19.6%" y="-12.5%" width="139.3%" height="139.3%" filterUnits="objectBoundingBox" id="a"><feOffset dy="6" in="SourceAlpha" result="shadowOffsetOuter1"/><feGaussianBlur stdDeviation="4.5" in="shadowOffsetOuter1" result="shadowBlurOuter1"/><feColorMatrix values="0 0 0 0 0 0 0 0 0 0 0 0 0 0 0 0 0 0 0.13 0" in="shadowBlurOuter1"/></filter><filter x="-19.6%" y="-12.5%" width="139.3%" height="139.3%" filterUnits="objectBoundingBox" id="c"><feOffset dy="6" in="SourceAlpha" result="shadowOffsetOuter1"/><feGaussianBlur stdDeviation="4.5" in="shadowOffsetOuter1" result="shadowBlurOuter1"/><feColorMatrix values="0 0 0 0 0 0 0 0 0 0 0 0 0 0 0 0 0 0 0.13 0" in="shadowBlurOuter1"/></filter><circle id="b" cx="42" cy="42" r="42"/><circle id="d" cx="42" cy="42" r="42"/></defs><g fill="none" fill-rule="evenodd"><g transform="translate(9 62.8)"><use fill="#000" filter="url(#a)" xlink:href="#b"/><use fill="#FFF" xlink:href="#b"/></g><g transform="translate(25 81.8)"><path fill="#42B983" fill-rule="nonzero" d="M0 0h49.9v44.4H0z"/><path fill="#34495E" fill-rule="nonzero" d="M4.7 5.2h40.6v34.1H4.7z"/><path fill="#34495E" fill-rule="nonzero" d="M25 24.6v19.9L4.7 24.6z"/><ellipse stroke="#FFF" stroke-width="1.7" transform="matrix(1 0 0 -1 0 44.5)" cx="25.1" cy="22.2" rx="11.5" ry="11.7"/><ellipse stroke="#FFF" stroke-width="1.7" transform="matrix(1 0 0 -1 0 44.5)" cx="25" cy="22.3" rx="5.5" ry="11.7"/><path d="M25 10.7v22.8-22.8zM36 22.6H13.7h22.5zM35.1 16.7H14.6h20.5zM35.1 28.2H14.6h20.5z" stroke="#FFF" stroke-width="1.7"/></g><g transform="translate(187.5 62.8)"><use fill="#000" filter="url(#c)" xlink:href="#d"/><use fill="#FFF" xlink:href="#d"/></g><path d="M32.1 7a13 13 0 004.6 25.7L32 7z" fill="url(#e)" transform="translate(204.6 80)"/><path d="M5.9 13A12.1 12.1 0 010 4.6C4.5 7.6 14.7 2 24 .4c6.5-1 13.2.5 18.7 4.3l-1.4 3-6.7 7.5-4.3 17c-1.3 4.6-.4 10.8 8.3 16.9C15.4 53.2-3 32.6 6 13.1" fill="url(#f)" transform="translate(204.6 80)"/><path d="M41.3 7.6v.1l-6.7 7.5-4.3 17c-1.3 4.5 1.3 11.3 8.3 16.9-30.6-2-34-38.5-7-44.1 2.8-.6 6.4 1.4 9.7 2.6" fill="url(#g)" transform="translate(204.6 80)"/><path d="M40.9 7.2l.5.3-3 10.3-8.1 14.4a12.7 12.7 0 01-10.6-11.1 14.4 14.4 0 0111.2-16c3.5-.6 7 .1 10 2" fill="url(#h)" transform="translate(204.6 80)"/><path d="M42.6 4.7a16.6 16.6 0 01-6.6 30c3.2-4.6-7.2-7.4-5-12.9 1.3-3.5 4.9-1.5 6.4-4.8l5.2-12.3z" fill="url(#i)" transform="translate(204.6 80)"/><path d="M236.6 88.3a4 4 0 100 8 4 4 0 000-8" fill="#000" fill-rule="nonzero"/><path d="M237.7 89.4a1.4 1.4 0 100 2.8 1.4 1.4 0 000-2.8" fill="#FFF"/><g stroke="#EFEFEF" stroke-linecap="round" stroke-linejoin="round" stroke-width="3"><path d="M223.5 48.4A101.6 101.6 0 00138.8 2C103.6 2 72.5 20.4 54 48.5"/><path d="M227.1 36.6l-1.9 14.1-13.4-2"/></g><g stroke="#EFEFEF" stroke-linecap="round" stroke-linejoin="round" stroke-width="3"><path d="M58.5 161c18.5 28.1 49.6 46.5 84.7 46.5 35.2 0 66.3-18.4 84.8-46.5"/><path d="M54.9 173l1.9-14.2 13.4 2"/></g></g></svg>